<mxfile host="app.diagrams.net" modified="2024-06-24T02:09:58.592Z" agent="Mozilla/5.0 (Windows NT 10.0; Win64; x64) AppleWebKit/537.36 (KHTML, like Gecko) Chrome/126.0.0.0 Safari/537.36" version="24.6.2" etag="QqQVIAcZ1c_sCDKn-f0z" type="github">
  <diagram name="ページ1" id="01KLTedHx-kusZggf8pl">
    <mxGraphModel>
      <root>
        <mxCell id="0" />
        <mxCell id="1" parent="0" />
      </root>
    </mxGraphModel>
  </diagram>
</mxfile>
